<svg width="155" height="37" viewBox="0 0 155 37" fill="none" xmlns="http://www.w3.org/2000/svg">
<path d="M0.380469 0.999998H8.48047V29.4H26.0305V36H0.380469V0.999998ZM49.4203 36.6C45.787 36.6 42.5036 35.8167 39.5703 34.25C36.6703 32.6833 34.387 30.5333 32.7203 27.8C31.087 25.0333 30.2703 21.9333 30.2703 18.5C30.2703 15.0667 31.087 11.9833 32.7203 9.25C34.387 6.48333 36.6703 4.31667 39.5703 2.75C42.5036 1.18333 45.787 0.399999 49.4203 0.399999C53.0536 0.399999 56.3203 1.18333 59.2203 2.75C62.1203 4.31667 64.4036 6.48333 66.0703 9.25C67.737 11.9833 68.5703 15.0667 68.5703 18.5C68.5703 21.9333 67.737 25.0333 66.0703 27.8C64.4036 30.5333 62.1203 32.6833 59.2203 34.25C56.3203 35.8167 53.0536 36.6 49.4203 36.6ZM49.4203 29.7C51.487 29.7 53.3536 29.2333 55.0203 28.3C56.687 27.3333 57.987 26 58.9203 24.3C59.887 22.6 60.3703 20.6667 60.3703 18.5C60.3703 16.3333 59.887 14.4 58.9203 12.7C57.987 11 56.687 9.68333 55.0203 8.75C53.3536 7.78333 51.487 7.3 49.4203 7.3C47.3536 7.3 45.487 7.78333 43.8203 8.75C42.1536 9.68333 40.837 11 39.8703 12.7C38.937 14.4 38.4703 16.3333 38.4703 18.5C38.4703 20.6667 38.937 22.6 39.8703 24.3C40.837 26 42.1536 27.3333 43.8203 28.3C45.487 29.2333 47.3536 29.7 49.4203 29.7ZM100.808 17.95H108.208V32.15C106.308 33.5833 104.108 34.6833 101.608 35.45C99.1078 36.2167 96.5911 36.6 94.0578 36.6C90.4245 36.6 87.1578 35.8333 84.2578 34.3C81.3578 32.7333 79.0745 30.5833 77.4078 27.85C75.7745 25.0833 74.9578 21.9667 74.9578 18.5C74.9578 15.0333 75.7745 11.9333 77.4078 9.2C79.0745 6.43333 81.3745 4.28333 84.3078 2.75C87.2411 1.18333 90.5411 0.399999 94.2078 0.399999C97.2745 0.399999 100.058 0.916665 102.558 1.95C105.058 2.98333 107.158 4.48333 108.858 6.45L103.658 11.25C101.158 8.61667 98.1411 7.3 94.6078 7.3C92.3745 7.3 90.3911 7.76667 88.6578 8.7C86.9245 9.63333 85.5745 10.95 84.6078 12.65C83.6411 14.35 83.1578 16.3 83.1578 18.5C83.1578 20.6667 83.6411 22.6 84.6078 24.3C85.5745 26 86.9078 27.3333 88.6078 28.3C90.3411 29.2333 92.3078 29.7 94.5078 29.7C96.8411 29.7 98.9411 29.2 100.808 28.2V17.95ZM135.182 36.6C131.549 36.6 128.265 35.8167 125.332 34.25C122.432 32.6833 120.149 30.5333 118.482 27.8C116.849 25.0333 116.032 21.9333 116.032 18.5C116.032 15.0667 116.849 11.9833 118.482 9.25C120.149 6.48333 122.432 4.31667 125.332 2.75C128.265 1.18333 131.549 0.399999 135.182 0.399999C138.815 0.399999 142.082 1.18333 144.982 2.75C147.882 4.31667 150.165 6.48333 151.832 9.25C153.499 11.9833 154.332 15.0667 154.332 18.5C154.332 21.9333 153.499 25.0333 151.832 27.8C150.165 30.5333 147.882 32.6833 144.982 34.25C142.082 35.8167 138.815 36.6 135.182 36.6ZM135.182 29.7C137.249 29.7 139.115 29.2333 140.782 28.3C142.449 27.3333 143.749 26 144.682 24.3C145.649 22.6 146.132 20.6667 146.132 18.5C146.132 16.3333 145.649 14.4 144.682 12.7C143.749 11 142.449 9.68333 140.782 8.75C139.115 7.78333 137.249 7.3 135.182 7.3C133.115 7.3 131.249 7.78333 129.582 8.75C127.915 9.68333 126.599 11 125.632 12.7C124.699 14.4 124.232 16.3333 124.232 18.5C124.232 20.6667 124.699 22.6 125.632 24.3C126.599 26 127.915 27.3333 129.582 28.3C131.249 29.2333 133.115 29.7 135.182 29.7Z" fill="#D0A24D"/>
</svg>
