<svg width="18" height="13" viewBox="0 0 18 13" fill="none" xmlns="http://www.w3.org/2000/svg">
<path d="M11.9318 6.59691L18 10.6269V2.39673L11.9318 6.59691Z" fill="#F9D713"/>
<path d="M0 2.39673V10.6269L6.06825 6.59691L0 2.39673Z" fill="#F9D713"/>
<path d="M16.875 0H1.125C0.563625 0 0.118125 0.439636 0.0337503 1.00573L9 7.21146L17.9663 1.00573C17.8819 0.439636 17.4364 0 16.875 0Z" fill="#F9D713"/>
<path d="M10.9012 7.31073L9.30937 8.41218C9.21488 8.47718 9.108 8.50909 9 8.50909C8.892 8.50909 8.78512 8.47718 8.69062 8.41218L7.09875 7.30955L0.0359994 12.0025C0.122624 12.5639 0.565874 13 1.125 13H16.875C17.4341 13 17.8774 12.5639 17.964 12.0025L10.9012 7.31073Z" fill="#F9D713"/>
</svg>
