<svg width="18" height="19" viewBox="0 0 18 19" fill="none" xmlns="http://www.w3.org/2000/svg">
<path d="M17.5352 17.3639L12.4101 11.969C13.3821 10.7058 13.9673 9.09977 13.9673 7.35122C13.9673 3.29778 10.8344 0 6.98362 0C3.13286 0 0 3.29778 0 7.35122C0 11.4047 3.13289 14.7024 6.98366 14.7024C8.64478 14.7024 10.1705 14.0865 11.3706 13.0633L16.4957 18.4581C16.6393 18.6092 16.872 18.6092 17.0155 18.4581L17.5352 17.9111C17.6787 17.76 17.6787 17.515 17.5352 17.3639ZM6.98366 13.1548C3.9434 13.1548 1.47025 10.5515 1.47025 7.35122C1.47025 4.15094 3.9434 1.54764 6.98366 1.54764C10.0239 1.54764 12.4971 4.15094 12.4971 7.35122C12.4971 10.5515 10.0239 13.1548 6.98366 13.1548Z" fill="#333333"/>
</svg>
